#!OML:ASF F:\VICON\USERDATA\INSTALL\rory3\rory3.ASF
:FULLY-SPECIFIED
:DEGREES
143
root 0.674428 17.9336 1.84731 0.0958705 6.33141 3.30026
lowerback 9.65661 -2.20966 -5.21874
upperback -0.176372 -3.4743 1.03406
thorax -5.22881 -1.56249 4.49861
lowerneck -16.3832 -2.69755 -1.92044
upperneck 20.8117 -3.20621 -0.175471
head 9.28795 -1.67016 -0.149263
rclavicle -4.54223e-014 8.34896e-015
rhumerus -35.8389 -24.1158 -75.1709
rradius 22.7962
rwrist 6.68176
rhand -13.459 25.8262
rfingers 7.12502
rthumb 12.6507 -3.77065
lclavicle -4.54223e-014 8.34896e-015
lhumerus -19.9265 -6.88589 83.7773
lradius 31.783
lwrist 8.6896
lhand -27.4609 27.8562
lfingers 7.12502
lthumb -0.865225 57.8342
rfemur -28.4448 10.0803 12.5748
rtibia 12.5276
rfoot -11.9507 -19.9261
rtoes 0.526309
lfemur 10.6347 0.447415 -27.4491
ltibia 14.9087
lfoot -15.5064 -3.10868
ltoes -4.74908
144
root 0.659 17.881 2.04124 0.093769 6.2625 3.37946
lowerback 9.56253 -2.11888 -5.32883
upperback -0.130069 -3.363 0.968325
thorax -5.13749 -1.50978 4.47038
lowerneck -16.7579 -2.78876 -1.92506
upperneck 21.2706 -3.34887 -0.0814658
head 9.52064 -1.725 -0.144492
rclavicle 1.18525e-014 5.96354e-015
rhumerus -35.9147 -24.4297 -75.0682
rradius 22.4408
rwrist 7.18854
rhand -14.5976 24.7439
rfingers 7.12502
rthumb 11.5529 -4.91768
lclavicle 1.18525e-014 5.96354e-015
lhumerus -19.7817 -7.42101 83.8009
lradius 31.8928
lwrist 8.86478
lhand -27.6531 28.121
lfingers 7.12502
lthumb -1.05087 58.0982
rfemur -27.8509 10.7599 12.2951
rtibia 10.7313
rfoot -12.3096 -20.2689
rtoes -1.91252
lfemur 11.3909 0.158662 -27.3849
ltibia 15.2114
lfoot -15.7902 -3.02643
ltoes -7.08873
145
root 0.64349 17.8632 2.22614 0.0520412 6.34786 3.43759
lowerback 9.73053 -2.06734 -5.38823
upperback -0.132281 -3.31394 0.905012
thorax -5.24054 -1.48075 4.44045
lowerneck -17.207 -2.81109 -1.76646
upperneck 21.6949 -3.40177 -0.144334
head 9.74968 -1.74182 -0.210496
rclavicle 2.35311e-014 -1.74931e-014
rhumerus -36.1038 -25.1501 -74.7547
rradius 21.9402
rwrist 8.17819
rhand -16.2369 23.1787
rfingers 7.12502
rthumb 9.97161 -6.56514
lclavicle 2.35311e-014 -1.74931e-014
lhumerus -19.645 -7.77749 83.8547
lradius 32.011
lwrist 8.89084
lhand -27.1896 26.6703
lfingers 7.12502
lthumb -0.603195 56.6492
rfemur -27.6659 10.34 12.5602
rtibia 10.4106
rfoot -12.231 -19.8758
rtoes -5.36726
lfemur 12.2793 -0.236174 -27.3441
ltibia 15.3427
lfoot -15.8347 -2.95893
ltoes -9.36055
146
root 0.632904 17.8736 2.4141 0.0736298 6.45408 3.55247
lowerback 9.8115 -2.09142 -5.53261
upperback -0.223924 -3.36992 0.905053
thorax -5.36871 -1.49773 4.53672
lowerneck -17.1122 -2.79332 -1.80137
upperneck 21.7427 -3.35742 -0.19396
head 9.74838 -1.73034 -0.215044
rclavicle -3.37188e-014 9.54166e-015
rhumerus -36.3058 -24.8932 -74.7438
rradius 21.8217
rwrist 8.3715
rhand -16.9661 22.0112
rfingers 7.12502
rthumb 9.26807 -7.76513
lclavicle -3.37188e-014 9.54166e-015
lhumerus -19.6312 -8.08037 83.9941
lradius 32.1095
lwrist 9.18905
lhand -26.8266 24.1866
lfingers 7.12502
lthumb -0.252638 54.1661
rfemur -27.8841 8.79977 13.2563
rtibia 11.3182
rfoot -11.7157 -18.3384
rtoes -5.7048
lfemur 12.8685 -0.544972 -27.3573
ltibia 15.5472
lfoot -15.6345 -3.30631
ltoes -9.47056
147
root 0.621477 17.8843 2.61106 -0.0170354 6.33527 3.48919
lowerback 9.73525 -2.05168 -5.43132
upperback -0.107698 -3.29909 0.876845
thorax -5.21827 -1.47395 4.43255
lowerneck -17.3041 -2.84041 -1.74265
upperneck 21.7295 -3.42477 -0.236247
head 9.77795 -1.76086 -0.251382
rclavicle -2.38542e-015 -3.18055e-015
rhumerus -36.2047 -24.862 -74.8959
rradius 21.887
rwrist 8.85183
rhand -16.7948 21.0389
rfingers 7.12502
rthumb 9.43333 -8.72994
lclavicle -2.38542e-015 -3.18055e-015
lhumerus -19.428 -8.64299 83.9438
lradius 32.2861
lwrist 9.53922
lhand -27.5522 22.1146
lfingers 7.12502
lthumb -0.953442 52.0922
rfemur -27.9677 7.11496 14.3942
rtibia 12.7988
rfoot -10.9074 -16.2261
rtoes -3.91033
lfemur 13.2216 -0.693471 -27.2071
ltibia 15.9095
lfoot -15.256 -3.67138
ltoes -8.87831
148
root 0.60538 17.8761 2.81008 -0.12089 6.1459 3.23366
lowerback 9.56533 -1.98602 -5.22244
upperback 0.0960847 -3.17062 0.92144
thorax -4.93068 -1.42994 4.32956
lowerneck -17.7078 -2.87509 -1.66667
upperneck 21.7174 -3.48382 -0.244088
head 9.84756 -1.7812 -0.280979
rclavicle 4.80562e-014 2.38542e-015
rhumerus -36.1171 -25.4463 -74.7621
rradius 21.7074
rwrist 9.26151
rhand -16.1449 21.9411
rfingers 7.12502
rthumb 10.0604 -7.79845
lclavicle 4.80562e-014 2.38542e-015
lhumerus -19.1267 -8.8398 83.8656
lradius 32.3982
lwrist 9.15975
lhand -28.1073 22.8325
lfingers 7.12502
lthumb -1.48954 52.8071
rfemur -28.3254 5.43866 15.8034
rtibia 14.7161
rfoot -9.53977 -14.3154
rtoes -3.30601
lfemur 13.6678 -0.946454 -26.9065
ltibia 16.3258
lfoot -14.8655 -3.57883
ltoes -11.1829
149
root 0.585189 17.8605 3.0164 -0.226763 6.05877 3.24406
lowerback 9.39001 -1.96424 -5.36694
upperback 0.148968 -3.14558 0.937626
thorax -4.77089 -1.42092 4.41385
lowerneck -17.464 -2.85009 -1.785
upperneck 21.6097 -3.45597 -0.0973202
head 9.76912 -1.76196 -0.201546
rclavicle 1.5207e-014 -6.75868e-015
rhumerus -36.3309 -25.3075 -74.8087
rradius 21.5712
rwrist 8.55038
rhand -15.98 22.8461
rfingers 7.12502
rthumb 10.2195 -6.88561
lclavicle 1.5207e-014 -6.75868e-015
lhumerus -19.1962 -8.64663 83.8682
lradius 32.4494
lwrist 8.76313
lhand -26.9249 24.5872
lfingers 7.12502
lthumb -0.347542 54.5666
rfemur -28.6961 4.1015 16.7141
rtibia 16.9073
rfoot -9.16114 -13.0104
rtoes -2.57531
lfemur 14.2871 -1.17566 -26.839
ltibia 16.7962
lfoot -14.5419 -3.58063
ltoes -14.3294
150
root 0.566632 17.8433 3.23132 -0.254268 6.17593 3.46997
lowerback 9.19416 -1.93892 -5.64535
upperback 0.0932019 -3.13644 0.850495
thorax -4.71118 -1.41198 4.46956
lowerneck -17.046 -2.88005 -1.75434
upperneck 21.4541 -3.52559 -0.0510106
head 9.63715 -1.78818 -0.191696
rclavicle 5.11871e-015 -4.37326e-015
rhumerus -36.7056 -25.2458 -74.6958
rradius 21.3379
rwrist 8.07495
rhand -16.0751 23.0518
rfingers 7.12502
rthumb 10.1277 -6.68443
lclavicle 5.11871e-015 -4.37326e-015
lhumerus -19.3168 -8.5584 83.9684
lradius 32.3194
lwrist 8.37073
lhand -26.029 23.9688
lfingers 7.12502
lthumb 0.517751 53.9479
rfemur -28.8445 3.40062 17.0261
rtibia 18.8376
rfoot -9.56233 -12.6135
rtoes -0.838713
lfemur 14.6818 -1.50624 -26.9556
ltibia 17.5854
lfoot -14.1684 -3.97434
ltoes -14.7615
151
root 0.546647 17.825 3.45357 -0.232069 6.61027 3.49379
lowerback 8.91866 -2.09031 -5.66593
upperback 0.0781583 -3.32586 0.811965
thorax -4.55136 -1.51135 4.44828
lowerneck -17.0162 -2.88593 -1.80485
upperneck 21.4865 -3.53837 0.02054
head 9.64566 -1.7901 -0.160117
rclavicle 1.41137e-014 -1.59028e-014
rhumerus -36.7885 -25.9858 -74.2318
rradius 20.5562
rwrist 9.44059
rhand -15.7262 25.2039
rfingers 7.12502
rthumb 10.4643 -4.51562
lclavicle 1.41137e-014 -1.59028e-014
lhumerus -19.471 -8.6697 83.9323
lradius 32.4663
lwrist 7.97237
lhand -26.3764 24.9786
lfingers 7.12502
lthumb 0.182207 54.9583
rfemur -28.8986 3.04336 17.3734
rtibia 20.6794
rfoot -10.0254 -12.7341
rtoes 0.312288
lfemur 14.8578 -2.01105 -26.7764
ltibia 18.4323
lfoot -13.7439 -4.63131
ltoes -16.1225
152
root 0.530757 17.8052 3.66171 -0.550773 5.96039 3.45679
lowerback 9.17352 -1.87204 -5.69223
upperback 0.0322109 -3.05597 0.794716
thorax -4.77387 -1.36808 4.42876
lowerneck -16.7707 -2.85072 -1.95249
upperneck 21.5151 -3.48491 0.14464
head 9.61519 -1.76425 -0.082111
rclavicle -3.75206e-015 6.36111e-015
rhumerus -37.013 -26.1138 -74.0058
rradius 20.2306
rwrist 10.4194
rhand -15.5997 26.1593
rfingers 7.12502
rthumb 10.5863 -3.55402
lclavicle -3.75206e-015 6.36111e-015
lhumerus -19.9608 -8.69714 83.9789
lradius 32.7388
lwrist 7.87228
lhand -25.1949 29.5012
lfingers 7.12502
lthumb 1.32331 59.4769
rfemur -28.7016 3.1328 17.942
rtibia 22.2336
rfoot -9.98876 -12.0373
rtoes 0.165379
lfemur 15.0457 -1.81427 -26.808
ltibia 19.4644
lfoot -12.9931 -5.00592
ltoes -18.0127
153
root 0.516317 17.8084 3.8749 -0.683099 5.88128 3.47873
lowerback 9.31314 -1.85072 -5.73717
upperback -0.157081 -3.04788 0.776695
thorax -5.05163 -1.34872 4.44734
lowerneck -16.3278 -2.8225 -1.89337
upperneck 21.5575 -3.44761 0.0414747
head 9.54408 -1.75601 -0.116258
rclavicle -7.45443e-017 -3.97569e-015
rhumerus -37.5516 -25.5886 -74.0407
rradius 20.351
rwrist 9.99664
rhand -15.5636 25.6255
rfingers 7.12502
rthumb 10.6212 -4.08607
lclavicle -7.45443e-017 -3.97569e-015
lhumerus -20.6579 -8.87255 84.0802
lradius 32.8122
lwrist 8.2231
lhand -26.9828 15.2818
lfingers 7.12502
lthumb -0.403456 45.2611
rfemur -28.5069 3.04993 18.2387
rtibia 23.3172
rfoot -8.75066 -11.6137
rtoes -0.878842
lfemur 14.9478 -2.01252 -26.8109
ltibia 20.8566
lfoot -12.1983 -5.50092
ltoes -20.7181
154
root 0.504564 17.8275 4.09252 -0.713104 6.12321 3.23392
lowerback 9.24034 -1.89576 -5.33365
upperback -0.25786 -3.06208 0.786725
thorax -5.13467 -1.36102 4.23198
lowerneck -16.2607 -2.88562 -1.88868
upperneck 21.7149 -3.51992 -0.041001
head 9.58596 -1.79881 -0.155402
rclavicle -3.70112e-014 -2.78299e-015
rhumerus -37.9728 -26.5436 -73.2583
rradius 19.7668
rwrist 11.2833
rhand -15.7297 25.664
rfingers 7.12502
rthumb 10.4609 -4.05571
lclavicle -3.70112e-014 -2.78299e-015
lhumerus -21.0519 -8.69089 84.2009
lradius 32.782
lwrist 8.0769
lhand -27.4889 29.6138
lfingers 7.12502
lthumb -0.892325 59.5917
rfemur -28.3934 3.12234 18.5504
rtibia 23.9647
rfoot -6.49172 -11.906
rtoes -2.02115
lfemur 14.7008 -2.53491 -26.4884
ltibia 22.4796
lfoot -11.3084 -6.08269
ltoes -23.458
